<svg width="240" height="240" viewBox="0 0 240 240" fill="none" xmlns="http://www.w3.org/2000/svg">
  <rect x="32" y="36" width="176" height="168" rx="28" fill="#F3E8FF"/>
  <path d="M80 84C80 74.0589 88.0589 66 98 66H142C151.941 66 160 74.0589 160 84V96H80V84Z" fill="#C4B5FD"/>
  <path d="M86 120C86 106.745 97.7452 95 111 95H129C142.255 95 154 106.745 154 120V132C154 145.255 142.255 157 129 157H111C97.7452 157 86 145.255 86 132V120Z" fill="#A78BFA"/>
  <rect x="98" y="146" width="44" height="14" rx="7" fill="#6D28D9"/>
  <path d="M104 105L116 95L128 105L140 95" stroke="#5B21B6" stroke-width="10" stroke-linecap="round" stroke-linejoin="round"/>
</svg>
