<svg width="240" height="240" viewBox="0 0 240 240" fill="none" xmlns="http://www.w3.org/2000/svg">
  <rect x="34" y="34" width="172" height="172" rx="28" fill="#DCFCE7"/>
  <path d="M120 56C102.767 56 88 70.767 88 88C88 107.936 120 152 120 152C120 152 152 107.936 152 88C152 70.767 137.233 56 120 56Z" fill="#4ADE80"/>
  <path d="M120 152C120 152 104 134 104 108C104 87.431 120 72 120 72C120 72 136 87.431 136 108C136 134 120 152 120 152Z" fill="#22C55E"/>
  <path d="M120 152C120 152 108 135 108 116C108 100.385 120 88 120 88C120 88 132 100.385 132 116C132 135 120 152 120 152Z" fill="#16A34A"/>
  <path d="M120 176C136.568 176 150 162.568 150 146C150 129.432 136.568 116 120 116C103.432 116 90 129.432 90 146C90 162.568 103.432 176 120 176Z" fill="#86EFAC"/>
</svg>
