<svg width="240" height="240" viewBox="0 0 240 240" fill="none" xmlns="http://www.w3.org/2000/svg">
  <rect x="32" y="32" width="176" height="176" rx="28" fill="#FEF3C7"/>
  <path d="M88 80C92.4183 80 96 76.4183 96 72C96 67.5817 92.4183 64 88 64C83.5817 64 80 67.5817 80 72C80 76.4183 83.5817 80 88 80Z" fill="#F59E0B"/>
  <path d="M152 80C156.418 80 160 76.4183 160 72C160 67.5817 156.418 64 152 64C147.582 64 144 67.5817 144 72C144 76.4183 147.582 80 152 80Z" fill="#F59E0B"/>
  <path d="M120 116C121.656 116 123 114.656 123 113C123 111.344 121.656 110 120 110C118.344 110 117 111.344 117 113C117 114.656 118.344 116 120 116Z" fill="#F59E0B"/>
  <path d="M96 146C95.4477 145.448 95 144.592 95 143.625V132C95 127.029 99.0294 123 104 123H136C140.971 123 145 127.029 145 132V143.625C145 144.592 144.552 145.448 144 146L130 160C128.343 161.657 125.657 161.657 124 160L110 146Z" fill="#FCD34D"/>
  <path d="M108 128H132" stroke="#F59E0B" stroke-width="12" stroke-linecap="round"/>
  <path d="M120 138V108" stroke="#F59E0B" stroke-width="12" stroke-linecap="round"/>
</svg>
